<?xml version="1.0" encoding="UTF-8" standalone="no" ?>
<!DOCTYPE svg PUBLIC "-//W3C//DTD SVG 1.1//EN" "http://www.w3.org/Graphics/SVG/1.1/DTD/svg11.dtd">
<svg xmlns="http://www.w3.org/2000/svg" xmlns:xlink="http://www.w3.org/1999/xlink" version="1.1" width="1280" height="1024" viewBox="0 0 1280 1024" xml:space="preserve">
<desc>Created with Fabric.js 4.4.0</desc>
<defs>
</defs>
<g transform="matrix(1 0 0 1 640 512)" id="background-logo"  >
<rect style="stroke: none; stroke-width: 0; stroke-dasharray: none; stroke-linecap: butt; stroke-dashoffset: 0; stroke-linejoin: miter; stroke-miterlimit: 4; fill: rgb(0,0,0); fill-rule: nonzero; opacity: 1;"  paint-order="stroke"  x="-640" y="-512" rx="0" ry="0" width="1280" height="1024" />
</g>
<g transform="matrix(1.9211538461538462 0 0 1.9211538461538462 735.1464997192351 469.75456575764247)" id="text-logo-path"  >
<linearGradient id="SVGID_7_163429" gradientUnits="userSpaceOnUse" gradientTransform="matrix(1 0 0 1 2.3499999999999943 -59.39)"  x1="0" y1="0" x2="0" y2="95">
<stop offset="0%" style="stop-color:rgb(248,77,158);stop-opacity: 1"/>
<stop offset="100%" style="stop-color:rgb(255,116,117);stop-opacity: 1"/>
</linearGradient>
<path style="stroke: none; stroke-width: 1; stroke-dasharray: none; stroke-linecap: butt; stroke-dashoffset: 0; stroke-linejoin: miter; stroke-miterlimit: 4; fill: url(#SVGID_7_163429); fill-rule: nonzero; opacity: 1;"  paint-order="stroke"  transform=" translate(-214.36499999999998, 29.275)" d="M 18.82 0.84 L 18.82 0.84 Q 14.2 0.84 10.46 -1.47 Q 6.72 -3.78 4.54 -7.64 Q 2.35 -11.51 2.35 -16.3 L 2.35 -16.3 L 2.44 -42.5 Q 2.44 -47.12 4.58 -50.95 Q 6.72 -54.77 10.46 -57.08 Q 14.2 -59.39 18.82 -59.39 L 18.82 -59.39 Q 23.44 -59.39 27.13 -57.12 Q 30.83 -54.85 33.01 -51.03 Q 35.2 -47.21 35.2 -42.5 L 35.2 -42.5 L 35.2 -38.64 Q 35.2 -38.3 34.86 -38.3 L 34.86 -38.3 L 25.45 -38.3 Q 25.12 -38.3 25.12 -38.64 L 25.12 -38.64 L 25.12 -42.5 Q 25.12 -45.28 23.31 -47.29 Q 21.5 -49.31 18.82 -49.31 L 18.82 -49.31 Q 15.79 -49.31 14.2 -47.25 Q 12.6 -45.19 12.6 -42.5 L 12.6 -42.5 L 12.6 -16.3 Q 12.6 -13.19 14.41 -11.26 Q 16.21 -9.32 18.82 -9.32 L 18.82 -9.32 Q 21.5 -9.32 23.31 -11.47 Q 25.12 -13.61 25.12 -16.3 L 25.12 -16.3 L 25.12 -20.16 Q 25.12 -20.5 25.45 -20.5 L 25.45 -20.5 L 34.94 -20.5 Q 35.28 -20.5 35.28 -20.16 L 35.28 -20.16 L 35.28 -16.3 Q 35.28 -11.51 33.05 -7.64 Q 30.83 -3.78 27.13 -1.47 Q 23.44 0.84 18.82 0.84 Z M 56.95 0.84 L 56.95 0.84 Q 52.42 0.84 48.68 -1.47 Q 44.94 -3.78 42.67 -7.6 Q 40.4 -11.42 40.4 -16.04 L 40.4 -16.04 L 40.49 -42.67 Q 40.49 -47.29 42.71 -51.07 Q 44.94 -54.85 48.72 -57.12 Q 52.5 -59.39 56.95 -59.39 L 56.95 -59.39 Q 61.49 -59.39 65.18 -57.12 Q 68.88 -54.85 71.11 -51.07 Q 73.33 -47.29 73.33 -42.67 L 73.33 -42.67 L 73.42 -16.04 Q 73.42 -11.42 71.19 -7.6 Q 68.96 -3.78 65.23 -1.47 Q 61.49 0.84 56.95 0.84 Z M 56.95 -9.32 L 56.95 -9.32 Q 59.47 -9.32 61.36 -11.38 Q 63.25 -13.44 63.25 -16.04 L 63.25 -16.04 L 63.17 -42.67 Q 63.17 -45.44 61.4 -47.38 Q 59.64 -49.31 56.95 -49.31 L 56.95 -49.31 Q 54.35 -49.31 52.5 -47.42 Q 50.65 -45.53 50.65 -42.67 L 50.65 -42.67 L 50.65 -16.04 Q 50.65 -13.27 52.5 -11.3 Q 54.35 -9.32 56.95 -9.32 Z M 97.86 0 L 87.7 0 Q 87.36 0 87.28 -0.42 L 87.28 -0.42 L 75.68 -58.13 Q 75.6 -58.46 76.02 -58.46 L 76.02 -58.46 L 85.51 -58.46 Q 85.85 -58.46 85.93 -58.13 L 85.93 -58.13 L 92.82 -19.66 L 99.54 -58.13 Q 99.62 -58.46 99.96 -58.46 L 99.96 -58.46 L 109.37 -58.46 Q 109.79 -58.46 109.7 -58.13 L 109.7 -58.13 L 98.28 -0.42 Q 98.2 0 97.86 0 L 97.86 0 Z M 124.57 0 L 115.08 0 Q 114.66 0 114.66 -0.42 L 114.66 -0.42 L 114.74 -58.13 Q 114.74 -58.46 115.08 -58.46 L 115.08 -58.46 L 124.49 -58.46 Q 124.82 -58.46 124.82 -58.13 L 124.82 -58.13 L 124.91 -0.42 Q 124.91 0 124.57 0 L 124.57 0 Z M 147.76 -0.08 L 132.72 0 Q 132.3 0 132.3 -0.42 L 132.3 -0.42 L 132.47 -58.13 Q 132.47 -58.46 132.8 -58.46 L 132.8 -58.46 L 148.51 -58.55 Q 153.13 -58.63 156.95 -56.36 Q 160.78 -54.1 163.04 -50.27 Q 165.31 -46.45 165.31 -41.83 L 165.31 -41.83 L 165.31 -17.72 Q 165.31 -12.85 162.96 -8.86 Q 160.61 -4.87 156.66 -2.52 Q 152.71 -0.17 147.76 -0.08 L 147.76 -0.08 Z M 142.63 -48.38 L 142.55 -10.33 L 147.76 -10.33 Q 150.86 -10.33 153.01 -12.52 Q 155.15 -14.7 155.15 -17.72 L 155.15 -17.72 L 155.15 -41.92 Q 155.15 -44.6 153.17 -46.58 Q 151.2 -48.55 148.51 -48.47 L 148.51 -48.47 L 142.63 -48.38 Z M 181.78 0 L 172.37 0 Q 171.95 0 171.95 -0.42 L 171.95 -0.42 L 172.12 -58.13 Q 172.12 -58.46 172.45 -58.46 L 172.45 -58.46 L 188.58 -58.46 Q 196.31 -58.46 200.8 -53.76 Q 205.3 -49.06 205.3 -40.99 L 205.3 -40.99 Q 205.3 -35.03 202.94 -30.66 Q 200.59 -26.29 196.81 -23.94 Q 193.03 -21.59 188.58 -21.59 L 188.58 -21.59 L 182.2 -21.59 L 182.2 -0.42 Q 182.2 0 181.78 0 L 181.78 0 Z M 182.2 -48.38 L 182.2 -31.75 L 188.58 -31.75 Q 191.27 -31.75 193.24 -34.31 Q 195.22 -36.88 195.22 -40.99 L 195.22 -40.99 Q 195.22 -44.27 193.45 -46.37 Q 191.69 -48.47 188.58 -48.47 L 188.58 -48.47 L 182.2 -48.38 Z M 220.84 0 L 211.34 0 Q 211.01 0 211.01 -0.42 L 211.01 -0.42 L 211.18 -58.13 Q 211.18 -58.46 211.51 -58.46 L 211.51 -58.46 L 228.48 -58.46 Q 233.02 -58.46 236.84 -56.24 Q 240.66 -54.01 242.93 -50.27 Q 245.2 -46.54 245.2 -41.83 L 245.2 -41.83 Q 245.2 -38.72 244.27 -36.25 Q 243.35 -33.77 242.09 -32.05 Q 240.83 -30.32 239.82 -29.48 L 239.82 -29.48 Q 244.36 -24.44 244.36 -17.64 L 244.36 -17.64 L 244.44 -0.42 Q 244.44 0 244.02 0 L 244.02 0 L 234.53 0 Q 234.19 0 234.19 -0.25 L 234.19 -0.25 L 234.19 -17.64 Q 234.19 -20.66 232.05 -22.89 Q 229.91 -25.12 226.8 -25.12 L 226.8 -25.12 L 221.26 -25.12 L 221.17 -0.42 Q 221.17 0 220.84 0 L 220.84 0 Z M 221.26 -48.38 L 221.26 -35.2 L 228.48 -35.2 Q 231.08 -35.2 233.1 -37.13 Q 235.12 -39.06 235.12 -41.83 L 235.12 -41.83 Q 235.12 -44.52 233.14 -46.45 Q 231.17 -48.38 228.48 -48.38 L 228.48 -48.38 L 221.26 -48.38 Z M 266.62 0.84 L 266.62 0.84 Q 262.08 0.84 258.34 -1.47 Q 254.6 -3.78 252.34 -7.6 Q 250.07 -11.42 250.07 -16.04 L 250.07 -16.04 L 250.15 -42.67 Q 250.15 -47.29 252.38 -51.07 Q 254.6 -54.85 258.38 -57.12 Q 262.16 -59.39 266.62 -59.39 L 266.62 -59.39 Q 271.15 -59.39 274.85 -57.12 Q 278.54 -54.85 280.77 -51.07 Q 283 -47.29 283 -42.67 L 283 -42.67 L 283.08 -16.04 Q 283.08 -11.42 280.85 -7.6 Q 278.63 -3.78 274.89 -1.47 Q 271.15 0.84 266.62 0.84 Z M 266.62 -9.32 L 266.62 -9.32 Q 269.14 -9.32 271.03 -11.38 Q 272.92 -13.44 272.92 -16.04 L 272.92 -16.04 L 272.83 -42.67 Q 272.83 -45.44 271.07 -47.38 Q 269.3 -49.31 266.62 -49.31 L 266.62 -49.31 Q 264.01 -49.31 262.16 -47.42 Q 260.32 -45.53 260.32 -42.67 L 260.32 -42.67 L 260.32 -16.04 Q 260.32 -13.27 262.16 -11.3 Q 264.01 -9.32 266.62 -9.32 Z M 303.24 0.84 L 303.24 0.84 Q 298.54 0.84 294.8 -1.39 Q 291.06 -3.61 288.92 -7.52 Q 286.78 -11.42 286.78 -16.3 L 286.78 -16.3 L 286.78 -20.16 Q 286.78 -20.5 287.11 -20.5 L 287.11 -20.5 L 296.6 -20.5 Q 296.94 -20.5 296.94 -20.08 L 296.94 -20.08 L 296.94 -16.3 Q 296.94 -13.19 298.7 -11.26 Q 300.47 -9.32 303.24 -9.32 L 303.24 -9.32 Q 305.76 -9.32 307.61 -11.42 Q 309.46 -13.52 309.46 -16.3 L 309.46 -16.3 L 309.46 -58.04 Q 309.46 -58.38 309.79 -58.38 L 309.79 -58.38 L 319.2 -58.38 Q 319.54 -58.38 319.54 -57.96 L 319.54 -57.96 L 319.62 -16.3 Q 319.62 -11.68 317.39 -7.77 Q 315.17 -3.86 311.47 -1.51 Q 307.78 0.84 303.24 0.84 Z M 353.47 0 L 326.34 0 Q 326 0 326 -0.42 L 326 -0.42 L 326.09 -58.13 Q 326.09 -58.46 326.42 -58.46 L 326.42 -58.46 L 353.39 -58.46 Q 353.72 -58.46 353.72 -58.04 L 353.72 -58.04 L 353.72 -48.64 Q 353.72 -48.3 353.39 -48.3 L 353.39 -48.3 L 336.17 -48.3 L 336.17 -35.2 L 353.39 -35.2 Q 353.72 -35.2 353.72 -34.86 L 353.72 -34.86 L 353.81 -25.37 Q 353.81 -25.03 353.47 -25.03 L 353.47 -25.03 L 336.17 -25.03 L 336.17 -10.33 L 353.47 -10.33 Q 353.81 -10.33 353.81 -9.91 L 353.81 -9.91 L 353.81 -0.34 Q 353.81 0 353.47 0 L 353.47 0 Z M 375.4 0.84 L 375.4 0.84 Q 370.78 0.84 367.04 -1.47 Q 363.3 -3.78 361.12 -7.64 Q 358.93 -11.51 358.93 -16.3 L 358.93 -16.3 L 359.02 -42.5 Q 359.02 -47.12 361.16 -50.95 Q 363.3 -54.77 367.04 -57.08 Q 370.78 -59.39 375.4 -59.39 L 375.4 -59.39 Q 380.02 -59.39 383.71 -57.12 Q 387.41 -54.85 389.59 -51.03 Q 391.78 -47.21 391.78 -42.5 L 391.78 -42.5 L 391.78 -38.64 Q 391.78 -38.3 391.44 -38.3 L 391.44 -38.3 L 382.03 -38.3 Q 381.7 -38.3 381.7 -38.64 L 381.7 -38.64 L 381.7 -42.5 Q 381.7 -45.28 379.89 -47.29 Q 378.08 -49.31 375.4 -49.31 L 375.4 -49.31 Q 372.37 -49.31 370.78 -47.25 Q 369.18 -45.19 369.18 -42.5 L 369.18 -42.5 L 369.18 -16.3 Q 369.18 -13.19 370.99 -11.26 Q 372.79 -9.32 375.4 -9.32 L 375.4 -9.32 Q 378.08 -9.32 379.89 -11.47 Q 381.7 -13.61 381.7 -16.3 L 381.7 -16.3 L 381.7 -20.16 Q 381.7 -20.5 382.03 -20.5 L 382.03 -20.5 L 391.52 -20.5 Q 391.86 -20.5 391.86 -20.16 L 391.86 -20.16 L 391.86 -16.3 Q 391.86 -11.51 389.63 -7.64 Q 387.41 -3.78 383.71 -1.47 Q 380.02 0.84 375.4 0.84 Z M 414.79 0 L 405.3 0 Q 404.96 0 404.96 -0.42 L 404.96 -0.42 L 404.96 -48.3 L 394.04 -48.3 Q 393.62 -48.3 393.62 -48.72 L 393.62 -48.72 L 393.71 -58.13 Q 393.71 -58.46 394.04 -58.46 L 394.04 -58.46 L 425.96 -58.46 Q 426.38 -58.46 426.38 -58.13 L 426.38 -58.13 L 426.38 -48.72 Q 426.38 -48.3 426.05 -48.3 L 426.05 -48.3 L 415.04 -48.3 L 415.13 -0.42 Q 415.13 0 414.79 0 L 414.79 0 Z" stroke-linecap="round" />
</g>
<g transform="matrix(2.303898229430145 0 0 2.303898229430145 733.6312421546318 588.9861232738049)" id="tagline-96472846-4a27-41db-a395-9b4c5be5053a-logo-path"  >
<path style="stroke: none; stroke-width: 0; stroke-dasharray: none; stroke-linecap: butt; stroke-dashoffset: 0; stroke-linejoin: miter; stroke-miterlimit: 4; fill: rgb(188,42,115); fill-rule: nonzero; opacity: 1;"  paint-order="stroke"  transform=" translate(-163.77, 12.345)" d="M 9.93 0 L 3.8 0 L 3.8 -24.7 L 9.93 -24.7 Q 12.9 -24.7 14.43 -23.3 Q 15.96 -21.89 15.96 -19.37 L 15.96 -19.37 L 15.96 -5.33 Q 15.96 -2.78 14.44 -1.39 Q 12.93 0 9.93 0 L 9.93 0 Z M 6.46 -22.41 L 6.46 -2.28 L 9.93 -2.28 Q 13.3 -2.28 13.3 -5.33 L 13.3 -5.33 L 13.3 -19.37 Q 13.3 -20.82 12.43 -21.62 Q 11.56 -22.41 9.93 -22.41 L 9.93 -22.41 L 6.46 -22.41 Z M 22.23 -4.75 L 22.23 -4.75 L 22.23 -8.55 Q 22.23 -13.88 27.7 -13.88 L 27.7 -13.88 L 32.1 -13.88 L 32.1 -20.09 Q 32.1 -21.47 31.23 -22.23 Q 30.36 -22.99 28.65 -22.99 L 28.65 -22.99 Q 25.27 -22.99 25.27 -20.09 L 25.27 -20.09 L 25.27 -17.87 L 22.6 -17.87 L 22.6 -19.95 Q 22.6 -22.49 24.1 -23.88 Q 25.61 -25.27 28.65 -25.27 Q 31.69 -25.27 33.23 -23.88 Q 34.77 -22.49 34.77 -19.95 L 34.77 -19.95 L 34.77 0 L 33.62 0 L 32.64 -2.43 Q 31.84 -1.06 30.55 -0.24 Q 29.26 0.58 27.7 0.58 L 27.7 0.58 Q 22.23 0.58 22.23 -4.75 Z M 24.88 -8.55 L 24.88 -4.75 Q 24.88 -3.3 25.49 -2.5 Q 26.11 -1.71 27.7 -1.71 Q 29.3 -1.71 30.66 -2.94 Q 32.03 -4.17 32.1 -5.4 L 32.1 -5.4 L 32.1 -11.6 L 27.7 -11.6 Q 26.11 -11.6 25.49 -10.8 Q 24.88 -10 24.88 -8.55 L 24.88 -8.55 Z M 41.41 -4.38 L 41.41 -4.38 L 41.41 -24.7 L 49.78 -24.7 L 49.78 -22.41 L 44.07 -22.41 L 44.07 -4.21 Q 44.07 -3.15 44.62 -2.43 Q 45.18 -1.71 46.18 -1.71 Q 47.18 -1.71 47.72 -2.41 Q 48.26 -3.12 48.26 -4.21 L 48.26 -4.21 L 48.26 -8.74 L 50.91 -8.74 L 50.91 -4.38 Q 50.91 -1.99 49.64 -0.71 Q 48.37 0.58 46.2 0.58 Q 44.03 0.58 42.72 -0.7 Q 41.41 -1.97 41.41 -4.38 Z M 55.48 -4.75 L 55.48 -4.75 L 55.48 -8.55 Q 55.48 -13.88 60.95 -13.88 L 60.95 -13.88 L 65.35 -13.88 L 65.35 -20.09 Q 65.35 -21.47 64.48 -22.23 Q 63.61 -22.99 61.9 -22.99 L 61.9 -22.99 Q 58.52 -22.99 58.52 -20.09 L 58.52 -20.09 L 58.52 -17.87 L 55.85 -17.87 L 55.85 -19.95 Q 55.85 -22.49 57.35 -23.88 Q 58.86 -25.27 61.9 -25.27 Q 64.94 -25.27 66.48 -23.88 Q 68.02 -22.49 68.02 -19.95 L 68.02 -19.95 L 68.02 0 L 66.87 0 L 65.89 -2.43 Q 65.09 -1.06 63.8 -0.24 Q 62.51 0.58 60.95 0.58 L 60.95 0.58 Q 55.48 0.58 55.48 -4.75 Z M 58.13 -8.55 L 58.13 -4.75 Q 58.13 -3.3 58.74 -2.5 Q 59.36 -1.71 60.95 -1.71 Q 62.55 -1.71 63.91 -2.94 Q 65.28 -4.17 65.35 -5.4 L 65.35 -5.4 L 65.35 -11.6 L 60.95 -11.6 Q 59.36 -11.6 58.74 -10.8 Q 58.13 -10 58.13 -8.55 L 58.13 -8.55 Z M 86.63 0 L 83.98 0 L 83.98 -24.7 L 94.42 -24.7 L 94.42 -22.41 L 86.63 -22.41 L 86.63 -13.67 L 92.9 -13.67 L 92.9 -11.39 L 86.63 -11.39 L 86.63 0 Z M 99.16 -4.75 L 99.16 -4.75 L 99.16 -19.95 Q 99.16 -22.49 100.77 -23.88 Q 102.38 -25.27 105.59 -25.27 Q 108.8 -25.27 110.44 -23.88 Q 112.07 -22.49 112.07 -19.95 L 112.07 -19.95 L 112.07 -4.75 Q 112.07 -2.21 110.46 -0.82 Q 108.84 0.58 105.63 0.58 Q 102.42 0.58 100.79 -0.82 Q 99.16 -2.21 99.16 -4.75 Z M 101.81 -19.95 L 101.81 -4.75 Q 101.81 -1.71 105.61 -1.71 Q 109.42 -1.71 109.42 -4.75 L 109.42 -4.75 L 109.42 -19.95 Q 109.42 -22.99 105.61 -22.99 Q 101.81 -22.99 101.81 -19.95 L 101.81 -19.95 Z M 121.76 0 L 119.1 0 L 119.1 -24.7 L 120.23 -24.7 L 121.35 -21.89 Q 122.57 -25.27 125.23 -25.27 L 125.23 -25.27 Q 129.75 -25.27 129.73 -20.34 L 129.73 -20.34 L 129.73 -17.87 L 127.19 -17.87 L 127.19 -20.48 Q 127.19 -22.99 125.1 -22.99 L 125.1 -22.99 Q 123.83 -22.99 122.79 -21.54 Q 121.76 -20.09 121.76 -17.37 L 121.76 -17.37 L 121.76 0 Z M 141.7 -12.23 L 141.7 -12.23 L 141.7 -24.7 L 144.36 -24.7 L 144.36 -12.23 Q 144.36 -9.18 148.14 -9.18 L 148.14 -9.18 Q 148.14 -9.18 148.16 -9.2 L 148.16 -9.2 Q 151.96 -9.2 151.96 -12.23 L 151.96 -12.23 L 151.96 -24.7 L 154.62 -24.7 L 154.62 -12.23 Q 154.62 -7.55 149.53 -7 L 149.53 -7 L 149.53 0 L 146.88 0 L 146.88 -7 Q 141.7 -7.57 141.7 -12.23 Z M 160.31 -4.75 L 160.31 -4.75 L 160.31 -19.95 Q 160.31 -22.49 161.93 -23.88 Q 163.54 -25.27 166.75 -25.27 Q 169.96 -25.27 171.59 -23.88 Q 173.23 -22.49 173.23 -19.95 L 173.23 -19.95 L 173.23 -4.75 Q 173.23 -2.21 171.61 -0.82 Q 170 0.58 166.79 0.58 Q 163.58 0.58 161.95 -0.82 Q 160.31 -2.21 160.31 -4.75 Z M 162.97 -19.95 L 162.97 -4.75 Q 162.97 -1.71 166.77 -1.71 Q 170.57 -1.71 170.57 -4.75 L 170.57 -4.75 L 170.57 -19.95 Q 170.57 -22.99 166.77 -22.99 Q 162.97 -22.99 162.97 -19.95 L 162.97 -19.95 Z M 179.87 -4.75 L 179.87 -4.75 L 179.87 -24.7 L 182.54 -24.7 L 182.54 -4.75 Q 182.54 -3.3 183.16 -2.5 Q 183.78 -1.71 185.45 -1.71 Q 187.12 -1.71 188.53 -3 Q 189.94 -4.29 189.94 -5.51 L 189.94 -5.51 L 189.94 -24.7 L 192.6 -24.7 L 192.6 0 L 191.47 0 L 190.48 -2.43 Q 189.65 -1.06 188.33 -0.24 Q 187.01 0.58 185.45 0.58 L 185.45 0.58 Q 179.87 0.58 179.87 -4.75 Z M 202.86 0 L 200.21 0 L 200.21 -24.7 L 201.34 -24.7 L 202.45 -21.89 Q 203.67 -25.27 206.33 -25.27 L 206.33 -25.27 Q 210.86 -25.27 210.84 -20.34 L 210.84 -20.34 L 210.84 -17.87 L 208.29 -17.87 L 208.29 -20.48 Q 208.29 -22.99 206.2 -22.99 L 206.2 -22.99 Q 204.94 -22.99 203.9 -21.54 Q 202.86 -20.09 202.86 -17.37 L 202.86 -17.37 L 202.86 0 Z M 226.79 0 L 224.14 0 L 224.14 -24.7 L 226.79 -24.7 L 226.79 -13.67 L 234.29 -13.67 L 234.29 -24.7 L 236.94 -24.7 L 236.94 0 L 234.29 0 L 234.29 -11.39 L 226.79 -11.39 L 226.79 0 Z M 243.96 -4.75 L 243.96 -4.75 L 243.96 -19.95 Q 243.96 -22.49 245.52 -23.88 Q 247.07 -25.27 250.19 -25.27 Q 253.31 -25.27 254.9 -23.88 Q 256.5 -22.49 256.5 -19.95 L 256.5 -19.95 L 256.5 -11.6 L 246.61 -11.6 L 246.61 -4.75 Q 246.61 -1.71 250.23 -1.71 Q 253.85 -1.71 253.85 -4.75 L 253.85 -4.75 L 253.85 -6.85 L 256.5 -6.85 L 256.5 -4.75 Q 256.5 -2.21 254.94 -0.82 Q 253.38 0.58 250.27 0.58 Q 247.15 0.58 245.55 -0.82 Q 243.96 -2.21 243.96 -4.75 Z M 246.61 -19.95 L 246.61 -13.88 L 253.85 -13.88 L 253.85 -19.95 Q 253.85 -22.99 250.23 -22.99 Q 246.61 -22.99 246.61 -19.95 L 246.61 -19.95 Z M 262.77 -4.75 L 262.77 -4.75 L 262.77 -8.55 Q 262.77 -13.88 268.25 -13.88 L 268.25 -13.88 L 272.64 -13.88 L 272.64 -20.09 Q 272.64 -21.47 271.77 -22.23 Q 270.9 -22.99 269.19 -22.99 L 269.19 -22.99 Q 265.81 -22.99 265.81 -20.09 L 265.81 -20.09 L 265.81 -17.87 L 263.14 -17.87 L 263.14 -19.95 Q 263.14 -22.49 264.65 -23.88 Q 266.15 -25.27 269.19 -25.27 Q 272.23 -25.27 273.77 -23.88 Q 275.31 -22.49 275.31 -19.95 L 275.31 -19.95 L 275.31 0 L 274.16 0 L 273.18 -2.43 Q 272.38 -1.06 271.09 -0.24 Q 269.8 0.58 268.25 0.58 L 268.25 0.58 Q 262.77 0.58 262.77 -4.75 Z M 265.42 -8.55 L 265.42 -4.75 Q 265.42 -3.3 266.04 -2.5 Q 266.65 -1.71 268.25 -1.71 Q 269.84 -1.71 271.2 -2.94 Q 272.57 -4.17 272.64 -5.4 L 272.64 -5.4 L 272.64 -11.6 L 268.25 -11.6 Q 266.65 -11.6 266.04 -10.8 Q 265.42 -10 265.42 -8.55 L 265.42 -8.55 Z M 292.14 0 L 282.53 0 L 282.53 -24.7 L 285.19 -24.7 L 285.19 -2.28 L 292.14 -2.28 L 292.14 0 Z M 296.11 -4.38 L 296.11 -4.38 L 296.11 -24.7 L 304.48 -24.7 L 304.48 -22.41 L 298.77 -22.41 L 298.77 -4.21 Q 298.77 -3.15 299.32 -2.43 Q 299.88 -1.71 300.88 -1.71 Q 301.88 -1.71 302.42 -2.41 Q 302.96 -3.12 302.96 -4.21 L 302.96 -4.21 L 302.96 -8.74 L 305.61 -8.74 L 305.61 -4.38 Q 305.61 -1.99 304.34 -0.71 Q 303.07 0.58 300.9 0.58 Q 298.73 0.58 297.42 -0.7 Q 296.11 -1.97 296.11 -4.38 Z M 313.59 0 L 310.94 0 L 310.94 -24.7 L 313.59 -24.7 L 313.59 -13.67 L 321.09 -13.67 L 321.09 -24.7 L 323.74 -24.7 L 323.74 0 L 321.09 0 L 321.09 -11.39 L 313.59 -11.39 L 313.59 0 Z" stroke-linecap="round" />
</g>
<g transform="matrix(1.9211538461538458 0 0 1.9211538461538458 209.16205618672814 501.11301326923075)" id="tagline-c8ba2cbe-68da-4718-a4bf-dd748f33abab-logo-path"  >
<linearGradient id="SVGID_8_163432" gradientUnits="userSpaceOnUse" gradientTransform="matrix(1 0 0 1 4.619999999999997 -116.66)"  x1="0" y1="0" x2="0" y2="186">
<stop offset="0%" style="stop-color:rgb(248,77,158);stop-opacity: 1"/>
<stop offset="100%" style="stop-color:rgb(255,116,117);stop-opacity: 1"/>
</linearGradient>
<path style="stroke: none; stroke-width: 0; stroke-dasharray: none; stroke-linecap: butt; stroke-dashoffset: 0; stroke-linejoin: miter; stroke-miterlimit: 4; fill: url(#SVGID_8_163432); fill-rule: nonzero; opacity: 1;"  paint-order="stroke"  transform=" translate(-36.959999999999994, 57.504999999999995)" d="M 36.96 1.65 L 36.96 1.65 Q 27.89 1.65 20.54 -2.89 Q 13.2 -7.43 8.91 -15.02 Q 4.62 -22.61 4.62 -32.01 L 4.62 -32.01 L 4.79 -83.49 Q 4.79 -92.56 8.99 -100.07 Q 13.2 -107.58 20.54 -112.12 Q 27.89 -116.66 36.96 -116.66 L 36.96 -116.66 Q 46.04 -116.66 53.3 -112.2 Q 60.55 -107.75 64.84 -100.24 Q 69.14 -92.73 69.14 -83.49 L 69.14 -83.49 L 69.14 -75.9 Q 69.14 -75.24 68.48 -75.24 L 68.48 -75.24 L 50 -75.24 Q 49.34 -75.24 49.34 -75.9 L 49.34 -75.9 L 49.34 -83.49 Q 49.34 -88.94 45.79 -92.9 Q 42.24 -96.86 36.96 -96.86 L 36.96 -96.86 Q 31.02 -96.86 27.89 -92.81 Q 24.75 -88.77 24.75 -83.49 L 24.75 -83.49 L 24.75 -32.01 Q 24.75 -25.91 28.3 -22.11 Q 31.85 -18.32 36.96 -18.32 L 36.96 -18.32 Q 42.24 -18.32 45.79 -22.52 Q 49.34 -26.73 49.34 -32.01 L 49.34 -32.01 L 49.34 -39.6 Q 49.34 -40.26 50 -40.26 L 50 -40.26 L 68.64 -40.26 Q 69.3 -40.26 69.3 -39.6 L 69.3 -39.6 L 69.3 -32.01 Q 69.3 -22.61 64.93 -15.02 Q 60.55 -7.43 53.3 -2.89 Q 46.04 1.65 36.96 1.65 Z" stroke-linecap="round" />
</g>
</svg>